<mxfile host="app.diagrams.net" modified="2024-02-15T19:50:14.728Z" agent="Mozilla/5.0 (Windows NT 10.0; Win64; x64; rv:122.0) Gecko/20100101 Firefox/122.0" etag="yr2ReRsuhJSFiY0CGsV-" version="23.1.4" type="github">
  <diagram name="Page-1" id="2JryGER7nNWJCPTwTpb6">
    <mxGraphModel dx="1035" dy="554" grid="1" gridSize="10" guides="1" tooltips="1" connect="1" arrows="1" fold="1" page="1" pageScale="1" pageWidth="827" pageHeight="1169" math="0" shadow="0">
      <root>
        <mxCell id="0" />
        <mxCell id="1" parent="0" />
        <mxCell id="iJnZs8l2DQ0V9KqZ7123-2" value="" style="rounded=0;whiteSpace=wrap;html=1;" vertex="1" parent="1">
          <mxGeometry x="340" y="110" width="200" height="290" as="geometry" />
        </mxCell>
        <mxCell id="iJnZs8l2DQ0V9KqZ7123-3" value="" style="rounded=1;whiteSpace=wrap;html=1;arcSize=35;" vertex="1" parent="1">
          <mxGeometry x="360" y="140" width="160" height="100" as="geometry" />
        </mxCell>
        <mxCell id="iJnZs8l2DQ0V9KqZ7123-4" value="" style="ellipse;whiteSpace=wrap;html=1;aspect=fixed;" vertex="1" parent="1">
          <mxGeometry x="370" y="290" width="20" height="20" as="geometry" />
        </mxCell>
        <mxCell id="iJnZs8l2DQ0V9KqZ7123-5" value="" style="ellipse;whiteSpace=wrap;html=1;aspect=fixed;" vertex="1" parent="1">
          <mxGeometry x="370" y="340" width="20" height="20" as="geometry" />
        </mxCell>
        <mxCell id="iJnZs8l2DQ0V9KqZ7123-7" value="" style="endArrow=none;html=1;rounded=0;" edge="1" parent="1">
          <mxGeometry width="50" height="50" relative="1" as="geometry">
            <mxPoint x="370" y="310" as="sourcePoint" />
            <mxPoint x="390" y="290" as="targetPoint" />
          </mxGeometry>
        </mxCell>
        <mxCell id="iJnZs8l2DQ0V9KqZ7123-8" value="" style="endArrow=none;html=1;rounded=0;" edge="1" parent="1">
          <mxGeometry width="50" height="50" relative="1" as="geometry">
            <mxPoint x="370" y="360" as="sourcePoint" />
            <mxPoint x="390" y="340" as="targetPoint" />
          </mxGeometry>
        </mxCell>
        <mxCell id="iJnZs8l2DQ0V9KqZ7123-9" value="COM" style="text;html=1;align=center;verticalAlign=middle;whiteSpace=wrap;rounded=0;" vertex="1" parent="1">
          <mxGeometry x="380" y="342.5" width="60" height="15" as="geometry" />
        </mxCell>
        <mxCell id="iJnZs8l2DQ0V9KqZ7123-57" value="In" style="text;html=1;align=center;verticalAlign=middle;whiteSpace=wrap;rounded=0;" vertex="1" parent="1">
          <mxGeometry x="370" y="292.5" width="60" height="15" as="geometry" />
        </mxCell>
        <mxCell id="iJnZs8l2DQ0V9KqZ7123-58" value="&lt;div&gt;&lt;font style=&quot;font-size: 19px;&quot;&gt;Oscilloscope&lt;/font&gt;&lt;/div&gt;" style="text;html=1;align=center;verticalAlign=middle;whiteSpace=wrap;rounded=0;" vertex="1" parent="1">
          <mxGeometry x="380" y="110" width="122" height="30" as="geometry" />
        </mxCell>
        <mxCell id="iJnZs8l2DQ0V9KqZ7123-59" value="Power Supply" style="rounded=0;whiteSpace=wrap;html=1;fontSize=21;" vertex="1" parent="1">
          <mxGeometry x="340" y="440" width="200" height="110" as="geometry" />
        </mxCell>
        <mxCell id="iJnZs8l2DQ0V9KqZ7123-61" value="Tested microcontroller" style="rounded=0;whiteSpace=wrap;html=1;fontSize=20;" vertex="1" parent="1">
          <mxGeometry x="20" y="440" width="220" height="110" as="geometry" />
        </mxCell>
        <mxCell id="iJnZs8l2DQ0V9KqZ7123-66" style="edgeStyle=orthogonalEdgeStyle;rounded=0;orthogonalLoop=1;jettySize=auto;html=1;exitX=0;exitY=0.25;exitDx=0;exitDy=0;entryX=1;entryY=0.25;entryDx=0;entryDy=0;endArrow=oval;endFill=1;fillColor=#f8cecc;strokeColor=#b85450;startArrow=oval;startFill=1;" edge="1" parent="1" source="iJnZs8l2DQ0V9KqZ7123-59" target="iJnZs8l2DQ0V9KqZ7123-61">
          <mxGeometry relative="1" as="geometry" />
        </mxCell>
        <mxCell id="iJnZs8l2DQ0V9KqZ7123-68" value="" style="endArrow=none;html=1;rounded=0;entryX=0;entryY=0.5;entryDx=0;entryDy=0;startArrow=oval;startFill=1;" edge="1" parent="1" target="iJnZs8l2DQ0V9KqZ7123-5">
          <mxGeometry width="50" height="50" relative="1" as="geometry">
            <mxPoint x="280" y="523" as="sourcePoint" />
            <mxPoint x="310" y="350" as="targetPoint" />
            <Array as="points">
              <mxPoint x="280" y="350" />
            </Array>
          </mxGeometry>
        </mxCell>
        <mxCell id="iJnZs8l2DQ0V9KqZ7123-69" value="" style="endArrow=none;html=1;rounded=0;entryX=0;entryY=0.5;entryDx=0;entryDy=0;exitX=0.75;exitY=0;exitDx=0;exitDy=0;startArrow=oval;startFill=1;" edge="1" parent="1" source="iJnZs8l2DQ0V9KqZ7123-61" target="iJnZs8l2DQ0V9KqZ7123-57">
          <mxGeometry width="50" height="50" relative="1" as="geometry">
            <mxPoint x="200" y="300" as="sourcePoint" />
            <mxPoint x="250" y="310" as="targetPoint" />
            <Array as="points">
              <mxPoint x="185" y="300" />
            </Array>
          </mxGeometry>
        </mxCell>
        <mxCell id="iJnZs8l2DQ0V9KqZ7123-70" value="Port Pin" style="text;html=1;align=center;verticalAlign=middle;whiteSpace=wrap;rounded=0;" vertex="1" parent="1">
          <mxGeometry x="157" y="440" width="60" height="20" as="geometry" />
        </mxCell>
        <mxCell id="iJnZs8l2DQ0V9KqZ7123-67" style="edgeStyle=orthogonalEdgeStyle;rounded=0;orthogonalLoop=1;jettySize=auto;html=1;exitX=0;exitY=0.75;exitDx=0;exitDy=0;entryX=1;entryY=0.75;entryDx=0;entryDy=0;endArrow=oval;endFill=1;startArrow=oval;startFill=1;" edge="1" parent="1" source="iJnZs8l2DQ0V9KqZ7123-59" target="iJnZs8l2DQ0V9KqZ7123-61">
          <mxGeometry relative="1" as="geometry" />
        </mxCell>
        <mxCell id="iJnZs8l2DQ0V9KqZ7123-71" value="" style="endArrow=none;html=1;rounded=0;exitX=0;exitY=0.5;exitDx=0;exitDy=0;entryX=1;entryY=0.5;entryDx=0;entryDy=0;" edge="1" parent="1">
          <mxGeometry width="50" height="50" relative="1" as="geometry">
            <mxPoint x="360" y="190" as="sourcePoint" />
            <mxPoint x="520.0000000000002" y="190" as="targetPoint" />
            <Array as="points">
              <mxPoint x="400" y="190" />
              <mxPoint x="400" y="170" />
              <mxPoint x="430" y="170" />
              <mxPoint x="430" y="190" />
            </Array>
          </mxGeometry>
        </mxCell>
        <mxCell id="iJnZs8l2DQ0V9KqZ7123-73" value="" style="endArrow=classic;startArrow=classic;html=1;rounded=0;strokeWidth=0;" edge="1" parent="1">
          <mxGeometry width="50" height="50" relative="1" as="geometry">
            <mxPoint x="400" y="220" as="sourcePoint" />
            <mxPoint x="430" y="220" as="targetPoint" />
          </mxGeometry>
        </mxCell>
        <mxCell id="iJnZs8l2DQ0V9KqZ7123-74" value="" style="endArrow=none;dashed=1;html=1;dashPattern=1 3;strokeWidth=1;rounded=0;" edge="1" parent="1">
          <mxGeometry width="50" height="50" relative="1" as="geometry">
            <mxPoint x="400" y="220" as="sourcePoint" />
            <mxPoint x="400" y="190" as="targetPoint" />
          </mxGeometry>
        </mxCell>
        <mxCell id="iJnZs8l2DQ0V9KqZ7123-75" value="" style="endArrow=none;dashed=1;html=1;dashPattern=1 3;strokeWidth=1;rounded=0;" edge="1" parent="1">
          <mxGeometry width="50" height="50" relative="1" as="geometry">
            <mxPoint x="430" y="220" as="sourcePoint" />
            <mxPoint x="430" y="190" as="targetPoint" />
          </mxGeometry>
        </mxCell>
      </root>
    </mxGraphModel>
  </diagram>
</mxfile>
